<svg width="493" height="119" viewBox="0 0 493 119" fill="none" xmlns="http://www.w3.org/2000/svg">
<path d="M24.0998 113.005C11.9637 126.396 -5.1938 110.913 1.50169 100.451L37.9096 36.005C44.1868 24.2876 66.3662 32.6572 60.089 47.7224L24.0998 113.005Z" fill="#22445D"/>
<path d="M54.2306 6.293L42.0947 28.0539C51.7197 23.8691 60.2288 31.1227 62.6002 35.5865L105.704 112.168C115.747 126.396 134.997 112.168 127.883 100.451L75.1546 6.293C68.4589 -2.91352 57.16 0.852764 54.2306 6.293Z" fill="#16A481"/>
<path d="M182.286 25.9616C164.71 25.9616 168.057 0.852877 182.286 0.852877C213.672 -1.65805 243.384 21.7767 245.058 56.0921C246.624 88.2001 225.389 105.473 214.509 110.913C204.109 116.113 188.982 97.4287 203.21 88.7334C210.743 84.1302 219.949 76.1791 219.949 56.0921C219.949 38.5159 200.699 25.9616 182.286 25.9616Z" fill="#16A481"/>
<path d="M154.247 0.852783H173.079C170.986 2.94518 167.22 7.54847 167.22 12.1517V92.4997H188.981C192.747 92.4997 194.421 92.4997 196.514 90.8257C189.818 105.891 203.209 115.254 207.394 114.261C211.579 113.267 199.024 118.027 188.981 118.027H153.41C147.133 118.027 142.111 112.168 142.111 106.728V12.1517C142.111 7.12998 146.715 0.852783 154.247 0.852783Z" fill="#22445D"/>
<path d="M316.617 0.852905C279.791 0.524093 261.378 33.0757 259.704 47.7225C267.655 39.3529 280.21 43.5377 284.813 50.6519C287.742 38.9345 300.715 25.9616 316.617 25.9616C335.03 25.9616 349.677 43.5377 349.677 56.0921C349.677 74.9237 339.215 91.6628 316.617 91.6628C297.786 91.6628 287.324 77.1556 284.813 68.6465C276.862 78.6899 265.005 76.3186 259.704 71.5758C261.378 89.9888 282.72 118.027 316.617 118.027C365.167 118.027 376.041 74.5052 376.041 56.0921C376.041 44.3747 363.487 1.27139 316.617 0.852905Z" fill="#22445D"/>
<path d="M283.557 59.4399C283.557 50.2333 276.443 46.8855 271.003 46.8855C264.725 46.8855 258.448 51.0703 258.448 59.4399C258.448 69.4834 265.562 71.9942 271.003 71.9942C276.443 71.9942 283.557 68.6464 283.557 59.4399Z" fill="#16A481"/>
<path d="M492.795 26.7986C492.795 19.2659 486.518 13.4072 479.404 13.4072C472.29 13.4072 466.013 18.8474 466.013 26.7986C466.013 34.7497 473.545 40.1899 479.404 40.1899C485.263 40.1899 492.795 34.7662 492.795 26.7986Z" fill="#22445D"/>
<path d="M478.567 10.4779C466.013 11.3148 462.526 24.1482 462.665 30.9833C451.366 20.9397 415.544 27.5518 414.54 57.3475C413.536 87.1432 446.135 104.217 470.616 82.8747C484.007 71.2002 499.626 90.8067 488.192 101.288C448.018 138.114 388.176 112.168 388.176 57.3475C388.176 11.4822 445.089 -16.3048 478.567 10.4779Z" fill="#16A481"/>
</svg>
